<svg width="618" height="74" viewBox="0 0 618 74" fill="none" xmlns="http://www.w3.org/2000/svg">
<path d="M0.886353 72V2.18178H46.2954V12.7841H13.5341V31.7386H43.9432V42.3409H13.5341V61.3977H46.5682L52.892 72H0.886353Z" fill="black"/>
<path d="M52.892 72V2.18178H79.0739C84.4375 2.18178 88.9375 3.1136 92.5739 4.97723C96.233 6.84087 98.9943 9.4545 100.858 12.8181C102.744 16.1591 103.688 20.0568 103.688 24.5113C103.688 28.9886 102.733 32.875 100.824 36.1705C98.9375 39.4432 96.1534 41.9773 92.4716 43.7727C88.7898 45.5455 84.267 46.4318 78.9034 46.4318H60.2557V35.9318H77.1989C80.3352 35.9318 82.9034 35.5 84.9034 34.6364C86.9034 33.75 88.3807 32.4659 89.3352 30.7841C90.3125 29.0795 90.8011 26.9886 90.8011 24.5113C90.8011 22.0341 90.3125 19.9204 89.3352 18.1704C88.3579 16.3977 86.8693 15.0568 84.8693 14.1477C82.8693 13.2159 80.2898 12.75 77.1307 12.75H65.5398V72H52.892ZM88.9602 40.3636L108 72.0682L92.1307 72L75.1534 40.3636H88.9602Z" fill="black"/>
<path d="M118.892 2.18177V72L108 72.0682L106.244 2.18177H118.892Z" fill="black"/>
<path d="M182.378 26.6931H169.628C169.264 24.6022 168.594 22.75 167.616 21.1363C166.639 19.5 165.423 18.1136 163.969 16.9772C162.514 15.8409 160.855 14.9886 158.991 14.4204C157.151 13.8295 155.162 13.5341 153.026 13.5341C149.23 13.5341 145.866 14.4886 142.935 16.3977C140.003 18.2841 137.707 21.0568 136.048 24.7159C134.389 28.3522 133.56 32.7955 133.56 38.0455C133.56 43.3864 134.389 47.8864 136.048 51.5455C137.73 55.1818 140.026 57.9318 142.935 59.7955C145.866 61.6364 149.219 62.5568 152.991 62.5568C155.082 62.5568 157.037 62.2841 158.855 61.7386C160.696 61.1705 162.344 60.3409 163.798 59.25C165.276 58.1591 166.514 56.8182 167.514 55.2273C168.537 53.6364 169.241 51.8182 169.628 49.7727L182.378 49.8409C181.901 53.1591 180.866 56.2727 179.276 59.1818C177.707 62.0909 175.651 64.6591 173.105 66.8864C170.56 69.0909 167.582 70.8182 164.173 72.0682C160.764 73.2955 156.98 73.9091 152.821 73.9091C146.685 73.9091 141.207 72.4886 136.389 69.6477C131.571 66.8068 127.776 62.7045 125.003 57.3409C122.23 51.9773 120.844 45.5455 120.844 38.0455C120.844 30.5227 122.241 24.0909 125.037 18.75C127.832 13.3863 131.639 9.28405 136.457 6.44314C141.276 3.60223 146.73 2.18178 152.821 2.18178C156.707 2.18178 160.321 2.72723 163.662 3.81814C167.003 4.90905 169.98 6.51133 172.594 8.62496C175.207 10.7159 177.355 13.2841 179.037 16.3295C180.741 19.3522 181.855 22.8068 182.378 26.6931Z" fill="black"/>
<path d="M202.318 73.6364V3.81814H247.727V14.4204H214.966V33.375H245.375V43.9773H214.966V63.0341H248V73.6364H202.318Z" fill="black"/>
<path d="M275.659 73.6364H252V3.81814H276.136C283.068 3.81814 289.023 5.21587 294 8.01132C299 10.784 302.841 14.7727 305.523 19.9772C308.205 25.1818 309.545 31.4091 309.545 38.6591C309.545 45.9318 308.193 52.1818 305.489 57.4091C302.807 62.6364 298.932 66.6477 293.864 69.4432C288.818 72.2386 282.75 73.6364 275.659 73.6364ZM264.648 62.6932H275.045C279.909 62.6932 283.966 61.8068 287.216 60.0341C290.466 58.2386 292.909 55.5682 294.545 52.0227C296.182 48.4545 297 44 297 38.6591C297 33.3182 296.182 28.8863 294.545 25.3636C292.909 21.8181 290.489 19.1704 287.284 17.4204C284.102 15.6477 280.148 14.7613 275.42 14.7613H264.648V62.6932Z" fill="black"/>
<path d="M325.193 72.0682L305.489 2.24996H319.091L331.67 53.5568H332.318L345.75 2.24996H358.125L371.591 53.5909H372.205L384.784 2.24996H398.386L378.682 72.0682H366.205L352.227 23.0795H351.682L337.67 72.0682H325.193Z" fill="black"/>
<path d="M396.693 72H383.193L407.773 2.18176H423.386L448 72H434.5L415.852 16.4999H415.307L396.693 72ZM397.136 44.625H433.955V54.7841H397.136V44.625Z" fill="black"/>
<path d="M451 72.0682V2.24995H477.182C482.545 2.24995 487.045 3.18177 490.682 5.04541C494.341 6.90904 497.102 9.52268 498.966 12.8863C500.852 16.2272 501.795 20.125 501.795 24.5795C501.795 29.0568 500.841 32.9431 498.932 36.2386C497.045 39.5113 494.261 42.0454 490.58 43.8409C486.898 45.6136 482.375 46.5 477.011 46.5H458.364V36H475.307C478.443 36 481.011 35.5681 483.011 34.7045C485.011 33.8181 486.489 32.534 487.443 30.8522C488.42 29.1477 488.909 27.0568 488.909 24.5795C488.909 22.1022 488.42 19.9886 487.443 18.2386C486.466 16.4659 484.977 15.125 482.977 14.2159C480.977 13.284 478.398 12.8181 475.239 12.8181H463.648V72.0682H451ZM487.068 40.4318L504.352 72.0682H490.239L473.261 40.4318H487.068Z" fill="black"/>
<path d="M530.159 72.0682H506.5V2.24996H530.636C537.568 2.24996 543.523 3.64769 548.5 6.44315C553.5 9.21587 557.341 13.2045 560.023 18.4091C562.705 23.6136 564.045 29.8409 564.045 37.0909C564.045 44.3636 562.693 50.6136 559.989 55.8409C557.307 61.0682 553.432 65.0795 548.364 67.875C543.318 70.6704 537.25 72.0682 530.159 72.0682ZM519.148 61.125H529.545C534.409 61.125 538.466 60.2386 541.716 58.4659C544.966 56.6704 547.409 54 549.045 50.4545C550.682 46.8863 551.5 42.4318 551.5 37.0909C551.5 31.75 550.682 27.3181 549.045 23.7954C547.409 20.25 544.989 17.6022 541.784 15.8522C538.602 14.0795 534.648 13.1931 529.92 13.1931H519.148V61.125Z" fill="black"/>
<path d="M604.511 20.3864C604.193 17.4091 602.852 15.0909 600.489 13.4318C598.148 11.7727 595.102 10.9432 591.352 10.9432C588.716 10.9432 586.455 11.3409 584.568 12.1364C582.682 12.9318 581.239 14.0113 580.239 15.375C579.239 16.7386 578.727 18.2954 578.705 20.0454C578.705 21.5 579.034 22.7614 579.693 23.8295C580.375 24.8977 581.295 25.8068 582.455 26.5568C583.614 27.2841 584.898 27.8977 586.307 28.3977C587.716 28.8977 589.136 29.3182 590.568 29.6591L597.114 31.2955C599.75 31.9091 602.284 32.7387 604.716 33.7841C607.17 34.8296 609.364 36.1478 611.295 37.7387C613.25 39.3296 614.795 41.25 615.932 43.5C617.068 45.75 617.636 48.3864 617.636 51.4091C617.636 55.5 616.591 59.1023 614.5 62.2159C612.409 65.3068 609.386 67.7273 605.432 69.4773C601.5 71.2046 596.739 72.0682 591.148 72.0682C585.716 72.0682 581 71.2273 577 69.5455C573.023 67.8637 569.909 65.4091 567.659 62.1818C565.432 58.9546 564.227 55.0228 564.045 50.3864H576.489C576.67 52.8182 577.42 54.8409 578.739 56.4546C580.057 58.0682 581.773 59.2728 583.886 60.0682C586.023 60.8637 588.409 61.2614 591.045 61.2614C593.795 61.2614 596.205 60.8523 598.273 60.0341C600.364 59.1932 602 58.0341 603.182 56.5568C604.364 55.0568 604.966 53.3068 604.989 51.3068C604.966 49.4887 604.432 47.9887 603.386 46.8068C602.341 45.6023 600.875 44.6023 598.989 43.8068C597.125 42.9887 594.943 42.2614 592.443 41.625L584.5 39.5796C578.75 38.1023 574.205 35.8637 570.864 32.8637C567.545 29.8409 565.886 25.8295 565.886 20.8295C565.886 16.7159 567 13.1136 569.227 10.0227C571.477 6.93181 574.534 4.53408 578.398 2.82953C582.261 1.10226 586.636 0.238625 591.523 0.238625C596.477 0.238625 600.818 1.10226 604.545 2.82953C608.295 4.53408 611.239 6.90908 613.375 9.95453C615.511 12.9773 616.614 16.4545 616.682 20.3864H604.511Z" fill="black"/>
</svg>
